<svg xmlns="http://www.w3.org/2000/svg" width="33.75" height="36" viewBox="0 0 33.75 36">
  <path id="Icon_awesome-star-of-life" data-name="Icon awesome-star-of-life" d="M33.187,23.515,23.629,18l9.558-5.515a1.125,1.125,0,0,0,.412-1.537l-2.251-3.9a1.126,1.126,0,0,0-1.538-.412l-9.558,5.515V1.125A1.125,1.125,0,0,0,19.126,0h-4.5A1.125,1.125,0,0,0,13.5,1.125V12.154L3.94,6.64A1.126,1.126,0,0,0,2.4,7.052l-2.251,3.9a1.125,1.125,0,0,0,.412,1.537L10.121,18,.563,23.515a1.125,1.125,0,0,0-.412,1.537l2.251,3.9a1.127,1.127,0,0,0,1.538.412L13.5,23.846V34.875A1.125,1.125,0,0,0,14.624,36h4.5a1.125,1.125,0,0,0,1.126-1.125V23.846L29.81,29.36a1.126,1.126,0,0,0,1.538-.412l2.251-3.9A1.124,1.124,0,0,0,33.187,23.515Z" transform="translate(0)"/>
</svg>
